<svg width="118" height="141" viewBox="0 0 118 141" fill="none" xmlns="http://www.w3.org/2000/svg">
<g clip-path="url(#clip0_112_118)">
<path d="M91.496 -0.134979C100.234 -0.168979 109.09 -0.128978 117.816 -0.276978L117.858 53.282C117.861 58.879 119.061 81.917 115.578 85.239C107.414 93.025 84.366 83.06 86.687 102.667C87.944 113.277 85.438 129.675 87.45 139.475C80.84 139.781 73.5349 139.595 66.8689 139.56C65.2599 135.391 63.548 131.264 61.733 127.181C59.956 129.593 59.1919 130.758 56.9259 132.672C54.1499 136.813 47.293 139.516 42.549 140.537C21.412 145.086 4.97396 130.385 0.661956 110.58C-0.0990444 107.088 -0.941048 95.949 1.02995 92.844C2.97995 89.773 9.19295 88.872 12.642 88.51C17.284 88.025 23.5069 87.969 27.4089 85.263C34.2649 80.507 28.303 56.057 46.062 41.431C53.08 35.651 61.95 33.748 70.853 34.678C81.075 35.745 87.8629 40.84 94.1449 48.535C92.9789 41.086 92.559 36.747 92.229 29.543C91.954 23.545 92.817 4.46302 91.496 -0.134979ZM44.211 121.806C46.214 121.676 48.2 121.346 50.138 120.823C65.721 116.49 59.394 103.891 64.086 93.433C66.875 87.219 80.4809 88.846 86.4299 87.076C95.2379 84.457 95.1189 76.464 92.7659 68.886C88.8409 55.105 71.635 49.932 62.183 61.539C57.128 66.752 58.8859 77.287 56.2309 82.557C50.0089 94.907 31.87 82.65 25.737 97.029C26.098 110.873 29.168 120.009 44.211 121.806Z" fill="url(#paint0_linear_112_118)"/>
<path d="M56.9259 132.672C54.1499 136.813 47.293 139.516 42.549 140.537C21.412 145.086 4.97396 130.385 0.661956 110.58C-0.0990444 107.088 -0.941048 95.949 1.02995 92.844C2.97995 89.773 9.19295 88.872 12.642 88.51C20.628 90.897 21.916 89.119 25.737 97.029C26.098 110.873 29.168 120.009 44.211 121.806C48.481 122.516 57.452 123.802 58.121 129.606C57.362 130.754 56.8649 131.264 56.9259 132.672Z" fill="url(#paint1_linear_112_118)"/>
</g>
<defs>
<linearGradient id="paint0_linear_112_118" x1="135.371" y1="19.8728" x2="42.7728" y2="113.55" gradientUnits="userSpaceOnUse">
<stop stop-color="#002EFF"/>
<stop offset="1" stop-color="#03C7FE"/>
</linearGradient>
<linearGradient id="paint1_linear_112_118" x1="11.1326" y1="129.104" x2="36.4037" y2="105.442" gradientUnits="userSpaceOnUse">
<stop stop-color="#03ECFC"/>
<stop offset="1" stop-color="#01C7FE"/>
</linearGradient>
<clipPath id="clip0_112_118">
<rect width="118" height="141" fill="white"/>
</clipPath>
</defs>
</svg>
