<svg width="736" height="141" viewBox="0 0 736 141" fill="none" xmlns="http://www.w3.org/2000/svg">
<g clip-path="url(#clip0_72_127)">
<path d="M618.236 31.361L633.574 31.265C634.125 40.431 634.005 70.395 632.639 78.47C640.137 69.297 646.801 61.862 654.742 53.118C659.917 52.808 667.136 53.026 672.46 53.024C665.179 61.217 657.756 69.284 650.195 77.22L662.633 93.731L673.456 108.647L655.759 108.663C650.462 101.291 645.22 93.879 640.034 86.429L633.69 91.52C633.761 97.231 633.753 102.942 633.668 108.653L618.194 108.64L618.236 31.361Z" fill="#0C0D62"/>
<path d="M248.086 52.49C250.135 52.25 252.195 52.109 254.258 52.068C278.368 51.516 279.171 65.561 278.531 84.92C278.279 92.535 278.492 100.999 278.478 108.678L267.48 108.624L264.647 101.39C256.54 109.669 247.396 112.627 236.369 107.589C227.259 101.133 227.732 93.589 230.644 83.565C233.979 72.085 262.57 75.654 262.863 73.12C264.696 57.262 243.781 65.735 238.981 67.644L233.845 57.069C239.065 54.423 242.339 53.444 248.086 52.49ZM254.795 83.578C241.443 85.819 240.072 98.38 253.938 98.278C262.355 95.752 263.256 91.493 263.141 83.177L254.795 83.578Z" fill="#0C0D62"/>
<path d="M705.629 52.427C730.954 50.321 736.02 62.828 735.904 85.096C725.004 84.56 711.098 84.933 700.07 85.06C703.61 100.928 715.439 100.25 728.489 95.421L731.308 94.336L732.261 94.976C733.192 97.474 732.668 102.73 732.673 105.905C722.486 110.952 707.414 111.72 697.106 105.926C682.938 97.962 681.45 75.835 689.153 62.91C692.76 56.857 698.85 53.895 705.629 52.427ZM700.401 74.377L710.041 74.345C713.642 74.336 718.644 74.448 722.102 74.081C719.703 66.91 718.893 64.225 710.839 63.072C703.18 64.511 702.402 67.102 700.401 74.377Z" fill="#0C0D62"/>
<path d="M91.496 -0.134979C100.234 -0.168979 109.09 -0.128978 117.816 -0.276978L117.858 53.282C117.861 58.879 119.061 81.917 115.578 85.239C107.414 93.025 84.366 83.06 86.687 102.667C87.944 113.277 85.438 129.675 87.45 139.475C80.84 139.781 73.5349 139.595 66.8689 139.56C65.2599 135.391 63.548 131.264 61.733 127.181C59.956 129.593 59.1919 130.758 56.9259 132.672C54.1499 136.813 47.293 139.516 42.549 140.537C21.412 145.086 4.97396 130.385 0.661956 110.58C-0.0990444 107.088 -0.941048 95.949 1.02995 92.844C2.97995 89.773 9.19295 88.872 12.642 88.51C17.284 88.025 23.5069 87.969 27.4089 85.263C34.2649 80.507 28.303 56.057 46.062 41.431C53.08 35.651 61.95 33.748 70.853 34.678C81.075 35.745 87.8629 40.84 94.1449 48.535C92.9789 41.086 92.559 36.747 92.229 29.543C91.954 23.545 92.817 4.46302 91.496 -0.134979ZM44.211 121.806C46.214 121.676 48.2 121.346 50.138 120.823C65.721 116.49 59.394 103.891 64.086 93.433C66.875 87.219 80.4809 88.846 86.4299 87.076C95.2379 84.457 95.1189 76.464 92.7659 68.886C88.8409 55.105 71.635 49.932 62.183 61.539C57.128 66.752 58.8859 77.287 56.2309 82.557C50.0089 94.907 31.87 82.65 25.737 97.029C26.098 110.873 29.168 120.009 44.211 121.806Z" fill="url(#paint0_linear_72_127)"/>
<path d="M56.9259 132.672C54.1499 136.813 47.293 139.516 42.549 140.537C21.412 145.086 4.97396 130.385 0.661956 110.58C-0.0990444 107.088 -0.941048 95.949 1.02995 92.844C2.97995 89.773 9.19295 88.872 12.642 88.51C20.628 90.897 21.916 89.119 25.737 97.029C26.098 110.873 29.168 120.009 44.211 121.806C48.481 122.516 57.452 123.802 58.121 129.606C57.362 130.754 56.8649 131.264 56.9259 132.672Z" fill="url(#paint1_linear_72_127)"/>
<path d="M194.587 31.3911L210.017 31.248C210.368 47.511 210.084 64.7771 210.084 81.1181L210.061 108.636C206.657 108.707 201.669 108.989 198.435 108.447L197.448 107.45C196.836 105.381 196.477 104.44 195.58 102.476L194.719 102.213L193.894 103.393C183.856 112.774 172.698 111.993 163.401 102.056L162.435 99.9391C160.58 97.6551 159.733 94.0441 158.938 91.2081C156.781 80.0651 157.811 64.5501 166.794 56.5701C170.588 53.1351 175.629 51.4121 180.732 51.8081C186.974 52.3061 191.595 55.289 195.531 59.951C194.283 49.7971 194.529 41.6361 194.587 31.3911ZM187.235 97.1931C197.201 93.7971 197.031 81.2841 194.653 72.6271C193.038 66.7441 188.106 64.4241 182.207 64.7161C170.883 69.7021 170.251 91.23 181.169 96.7401C182.228 97.274 185.914 97.2651 187.235 97.1931Z" fill="#0C0D62"/>
<path d="M477.57 31.241C482.38 31.344 487.192 31.339 492.002 31.225C492.106 39.088 492.1 46.952 491.982 54.815C491.605 56.562 491.21 57.509 491.767 59.188C493.531 58.904 493.844 57.842 495.29 56.132C504.16 50.351 518.692 49.983 524.824 59.748C525.38 60.624 525.885 61.532 526.337 62.467C529.207 71.617 528.038 97.809 528.024 108.657L512.662 108.683C512.661 99.287 512.321 87.65 512.694 78.448C512.621 73.37 511.18 63.011 503.674 63.934C489.052 65.733 492.331 87.287 491.986 97.597C491.893 100.017 492.038 105.843 492.571 108.06C490.895 109.192 479.585 108.686 476.791 108.652C476.79 100.48 476.114 34.077 477.57 31.241Z" fill="#0C0D62"/>
<path d="M352.702 56.9691C365.371 50.9851 380.68 49.1521 392.621 57.7031C395.061 61.0391 396.822 64.205 397.089 68.382C397.929 81.534 397.458 95.5191 397.376 108.672C394.579 108.679 389.371 108.513 386.836 109.111C385.71 107.172 384.468 103.486 383.644 101.273C369.844 116.064 345.771 112.172 348.008 89.2791C349.95 69.4041 376.729 77.2361 382.051 72.9991C383.104 70.1741 380.053 65.0131 377.503 64.1691C371.63 62.2271 363.48 65.2711 358.076 67.7331L352.702 56.9691ZM373.797 83.5471C360.405 85.8601 359.231 98.299 372.782 98.313C381.336 95.788 382.218 91.6421 382.061 83.2581L373.797 83.5471Z" fill="#0C0D62"/>
<path d="M551.446 57.003C563.754 51.566 587.316 46.96 594.572 62.821C596.793 67.675 596.267 77.541 596.228 83.112C596.225 87.607 596.496 96.071 596.166 100.241L596.438 104.626C596.236 106.278 596.152 106.977 596.244 108.633C593.044 108.788 587.683 109.433 585.068 107.848L584.085 105.774C583.619 104.136 583.49 103.755 582.659 102.273L581.61 102.265L579.015 104.891C559.086 121.076 533.909 96.82 552.504 78.937C562.08 73.859 570.499 74.028 581.176 74.068C580.889 70.898 580.894 67.64 578.199 65.486C572.567 60.985 562.697 65.312 556.907 67.616L551.446 57.003ZM572.054 98.3C576.83 96.544 577.757 95.83 580.498 91.595L580.985 83.173L572.523 83.518C559.281 85.812 558.051 98.353 572.054 98.3Z" fill="#0C0D62"/>
<path d="M437.734 88.198C431.23 85.376 420.366 81.667 417.512 74.872C414.401 67.463 416.628 57.389 424.884 54.362C436.158 50.228 447.146 52.197 458 56.397L453.193 67.772C448.879 66.043 432.861 60.046 431.206 66.895C433.29 71.862 445.915 75.911 451.504 78.877C455.523 82.237 457.741 84.512 458.277 89.935C460.42 111.6 435.784 111.532 421.011 108.096C419.457 107.735 417.336 106.921 415.819 106.688C416.373 103.735 416.261 96.679 416.004 93.606C421.825 96.045 437.717 101.496 442.481 95.903C444.097 91.353 441.191 90.188 437.734 88.198Z" fill="#0C0D62"/>
<path d="M307.467 41.724C310.858 41.551 314.399 41.309 317.782 41.328L317.837 53.036L332.907 52.98L332.939 65L317.692 64.7529C317.78 70.5859 316.098 91.626 319.466 95.082C320.974 96.63 323.591 97.297 325.696 97.161C328.429 96.985 331.22 96.2849 333.869 95.6099L333.91 107.405C331.799 107.932 329.217 108.649 327.123 109.033L325.815 109.472C323.276 109.739 319.813 109.764 317.195 109.861C312.961 109.147 310.968 108.577 307.344 106.292C299.334 97.4299 301.895 77.08 302.104 64.821C298.639 64.894 294.578 65.7069 294.461 61.0889C296.935 55.6829 299 55.925 303.32 52.759C304.648 49.209 306.045 45.193 307.467 41.724Z" fill="#0C0D62"/>
<path d="M491.982 54.815L492.593 55.906L493.186 53.778L494.058 53.515L495.254 54.757C495.01 55.777 494.904 55.341 495.29 56.132C493.844 57.842 493.531 58.904 491.767 59.188C491.21 57.509 491.605 56.562 491.982 54.815Z" fill="#0C0D62" fill-opacity="0.0117647"/>
</g>
<defs>
<linearGradient id="paint0_linear_72_127" x1="135.371" y1="19.8728" x2="42.7728" y2="113.55" gradientUnits="userSpaceOnUse">
<stop stop-color="#002EFF"/>
<stop offset="1" stop-color="#03C7FE"/>
</linearGradient>
<linearGradient id="paint1_linear_72_127" x1="11.1326" y1="129.104" x2="36.4037" y2="105.442" gradientUnits="userSpaceOnUse">
<stop stop-color="#03ECFC"/>
<stop offset="1" stop-color="#01C7FE"/>
</linearGradient>
<clipPath id="clip0_72_127">
<rect width="736" height="141" fill="white"/>
</clipPath>
</defs>
</svg>
